# xmcd
#
# Track frame offsets:
#	150
#	12301
#	26811
#	39879
#	53823
#	66754
#	82053
#	96003
#	108653
#	122138
#	135099
#	146476
#	161422
#	174640
#	188480
#	200605
#	215801
#	229842
#	242493
#	253992
#	266397
#	280596
#	290911
#	303702
#
# Disc length: 4188
#
# Revision: 1
# Processed by: cddbd v1.5.1PL0 Copyright (c) Steve Scherf et al.
# Submitted via: dBpowerAMP V4.0
# Normalized: r0:TDELIM( - )
#
DISCID=60105a18
DTITLE=Various Artist - Chicago Slide Guitar Masters From Tampa Red To Elmore James
DYEAR=1900
DGENRE=Blues
TTITLE0=Tampa Red - Though Train Blues
TTITLE1=Charlie Mac Coy - Motherless And Fartherless Blues
TTITLE2=Kokomo Arnold - Old Original Kokomo BLues
TTITLE3=Joe Mac Coy - Please Baby
TTITLE4=Bob Dunn - Talking Off
TTITLE5=Casey Bill Weldon - Long Eared Blues
TTITLE6=Kokomo Arnold and Alice Moore - Dark Angel
TTITLE7=Tampa Kid - Keep On Trying
TTITLE8=Kokomo Arnold - Crying Blues
TTITLE9=Casey Bill Weldon - Spider Blues
TTITLE10=Eddie Duncan - Peach Tree Blues
TTITLE11=Rover Jr Lockwood - Little Boy Blue
TTITLE12=Muddy Water and Saint Louis Jimmy - Florida Hurricane
TTITLE13=Muddy Water and Saint Louis Jimmy - So Nice And Kind
TTITLE14=Muddy Guitar - Long Distance Call
TTITLE15=Tampa Red - Love Her With A Feeling
TTITLE16=Earl Hooker - Sweet Angel
TTITLE17=Tampa Red - Green And Lucky Blues
TTITLE18=Johnny Shines - Ramblin
TTITLE19=Robert Nighthawk - The Moon Is Rising
TTITLE20=Homesick James and Johnny Shines - Homesick
TTITLE21=Elmore James - I Can T Stop Lovin You
TTITLE22=Elmore James and Big Joe Turner - T V Mama
TTITLE23=Elmore James - Hawaiian Boogie
EXTD=
EXTT0=
EXTT1=
EXTT2=
EXTT3=
EXTT4=
EXTT5=
EXTT6=
EXTT7=
EXTT8=
EXTT9=
EXTT10=
EXTT11=
EXTT12=
EXTT13=
EXTT14=
EXTT15=
EXTT16=
EXTT17=
EXTT18=
EXTT19=
EXTT20=
EXTT21=
EXTT22=
EXTT23=
PLAYORDER=
